<svg width="360" height="428" viewBox="0 0 360 428" fill="none" xmlns="http://www.w3.org/2000/svg">
<path d="M177.583 170.396C173.091 170.396 169.819 171.886 167.769 174.864C166.255 177.159 165.498 180.211 165.498 184.02C165.498 193.053 169.38 197.618 177.144 197.716H177.583C182.075 197.716 185.322 196.202 187.324 193.175C188.838 190.929 189.595 187.877 189.595 184.02C189.595 180.211 188.838 177.159 187.324 174.864C185.322 171.886 182.075 170.396 177.583 170.396ZM198.237 264L194.282 259.532L193.037 260.191C188.447 262.73 183.149 264 177.144 264C167.769 264 160.273 260.997 154.658 254.991C149.043 248.985 146.235 240.929 146.235 230.821C146.235 218.419 150.288 209.264 158.394 203.355L159.858 202.257L158.76 200.792C155.439 196.349 153.779 190.758 153.779 184.02C153.779 176.354 155.952 170.201 160.298 165.562C164.595 160.973 170.356 158.678 177.583 158.678C184.81 158.678 190.571 160.973 194.868 165.562C199.165 170.201 201.313 176.354 201.313 184.02C201.313 191.734 199.165 197.887 194.868 202.477C190.571 207.066 184.81 209.361 177.583 209.361H177.363L175.386 209.435C169.722 209.776 165.4 211.803 162.422 215.514C159.443 219.176 157.954 224.278 157.954 230.821C157.954 237.755 159.59 243.077 162.861 246.788C166.182 250.45 170.942 252.281 177.144 252.281C179.634 252.281 181.88 251.988 183.882 251.402L186.592 250.597L179.268 242.174L188.057 234.483L194.648 242.027L195.454 238.658C195.942 236.803 196.235 234.801 196.333 232.652H208.052C207.808 239.439 206.245 245.274 203.364 250.157L202.705 251.329L213.765 264H198.237Z" fill="black"/>
<path d="M162.169 34.7063C160.079 32.6165 157.599 30.9587 154.869 29.8276C152.138 28.6966 149.212 28.1144 146.257 28.1144C143.302 28.1144 140.376 28.6966 137.645 29.8276C134.915 30.9587 132.435 32.6165 130.345 34.7063C128.929 36.1217 127.709 37.7203 126.717 39.4595L106.875 34.0454C106.936 29.569 105.661 25.1761 103.212 21.4286C100.763 17.6811 97.2514 14.7493 93.127 13.0084C89.0026 11.2674 84.4526 10.7964 80.059 11.6555C75.6655 12.5147 71.6281 14.665 68.4633 17.8313C65.0841 21.2185 62.8703 25.593 62.1422 30.3218C61.4141 35.0506 62.2095 39.8885 64.4133 44.1352L40.5492 65.6157C36.2195 62.754 31.0347 61.4745 25.8707 61.9933C20.7067 62.5122 15.8801 64.7975 12.2062 68.4634C8.09836 72.5401 5.71935 78.043 5.56364 83.8283C5.40792 89.6136 7.48747 95.2365 11.3701 99.5283C15.2527 103.82 20.6398 106.451 26.4118 106.874C32.1838 107.296 37.8967 105.479 42.3633 101.799L91.582 137.911C90.0069 141.855 89.5803 146.165 90.3517 150.342C91.123 154.518 93.0608 158.391 95.9409 161.513C98.821 164.634 102.526 166.877 106.627 167.982C110.728 169.086 115.058 169.007 119.116 167.754C123.174 166.501 126.795 164.124 129.559 160.9C132.324 157.675 134.119 153.734 134.738 149.532C135.356 145.33 134.773 141.039 133.055 137.155C131.337 133.27 128.555 129.952 125.03 127.582L144.288 73.0266C144.935 73.0829 145.582 73.111 146.229 73.111C150.678 73.1104 155.027 71.7906 158.726 69.3187C162.426 66.8468 165.309 63.3336 167.012 59.2232C168.715 55.1129 169.161 50.5899 168.294 46.2261C167.427 41.8622 165.286 37.8534 162.141 34.7063H162.169ZM76.3875 25.7837C77.9613 24.2116 79.9659 23.1414 82.1479 22.7083C84.3298 22.2752 86.5912 22.4988 88.6461 23.3506C90.701 24.2025 92.4573 25.6444 93.6929 27.4942C94.9285 29.344 95.588 31.5186 95.588 33.7431C95.588 35.9676 94.9285 38.1421 93.6929 39.9919C92.4573 41.8417 90.701 43.2837 88.6461 44.1355C86.5912 44.9874 84.3298 45.2109 82.1479 44.7778C79.9659 44.3447 77.9613 43.2745 76.3875 41.7024C75.3433 40.6558 74.5157 39.4136 73.952 38.0468C73.3883 36.6801 73.0995 35.2157 73.1021 33.7372C73.1047 32.2588 73.3987 30.7954 73.9672 29.4307C74.5358 28.0659 75.3678 26.8267 76.4156 25.7837H76.3875ZM20.1375 92.3345C19.0915 91.2896 18.2617 90.0489 17.6956 88.6832C17.1294 87.3174 16.838 85.8535 16.838 84.3751C16.838 82.8967 17.1294 81.4327 17.6956 80.067C18.2617 78.7013 19.0915 77.4605 20.1375 76.4157C21.7113 74.8436 23.7159 73.7734 25.8978 73.3403C28.0798 72.9073 30.3412 73.1308 32.3961 73.9826C34.451 74.8345 36.2073 76.2764 37.4429 78.1262C38.6785 79.976 39.338 82.1506 39.338 84.3751C39.338 86.5996 38.6785 88.7742 37.4429 90.6239C36.2073 92.4737 34.451 93.9157 32.3961 94.7675C30.3412 95.6194 28.0798 95.8429 25.8978 95.4098C23.7159 94.9768 21.7113 93.9066 20.1375 92.3345ZM120.438 154.209C118.328 156.32 115.466 157.505 112.482 157.505C109.498 157.505 106.637 156.32 104.527 154.209C102.417 152.099 101.231 149.238 101.231 146.254C101.231 143.27 102.417 140.408 104.527 138.298C105.571 137.253 106.812 136.424 108.177 135.859C109.542 135.293 111.005 135.002 112.482 135.002C113.96 135.002 115.423 135.293 116.788 135.859C118.153 136.424 119.393 137.253 120.438 138.298C121.483 139.343 122.312 140.583 122.877 141.948C123.443 143.313 123.734 144.776 123.734 146.254C123.734 147.731 123.443 149.194 122.877 150.559C122.312 151.924 121.483 153.165 120.438 154.209ZM114.427 123.849C108.594 123.341 102.792 125.126 98.2547 128.827L49.0359 92.7141C50.2287 89.7052 50.7618 86.4753 50.5993 83.2427C50.4367 80.0101 49.5823 76.85 48.0937 73.9759L71.9648 52.4954C74.5329 54.1975 77.4232 55.3541 80.4566 55.8934C83.49 56.4327 86.6018 56.3433 89.5993 55.6306C92.5967 54.918 95.4158 53.5974 97.8819 51.7507C100.348 49.9039 102.409 47.5704 103.936 44.8946L123.75 50.3157C123.696 54.056 124.576 57.7506 126.31 61.0654C128.043 64.3801 130.576 67.2104 133.678 69.3001L114.427 123.849ZM154.195 58.5704C153.167 59.6821 151.924 60.5746 150.542 61.1945C149.161 61.8144 147.668 62.1488 146.154 62.1779C144.639 62.2069 143.135 61.9299 141.73 61.3635C140.326 60.797 139.05 59.9528 137.979 58.8814C136.909 57.81 136.066 56.5335 135.501 55.1284C134.935 53.7233 134.66 52.2185 134.69 50.7043C134.72 49.1901 135.056 47.6976 135.677 46.3163C136.298 44.935 137.192 43.6933 138.305 42.6657C140.415 40.5557 143.277 39.3703 146.261 39.3703C149.245 39.3703 152.106 40.5557 154.216 42.6657C156.326 44.7757 157.512 47.6376 157.512 50.6216C157.512 53.6056 156.326 56.4674 154.216 58.5774L154.195 58.5704Z" fill="black"/>
<path d="M228.6 314.199L200.039 338L228.6 361.801C229.184 362.268 229.669 362.847 230.026 363.504C230.383 364.161 230.606 364.883 230.681 365.627C230.756 366.372 230.682 367.123 230.463 367.838C230.244 368.554 229.885 369.218 229.406 369.793C228.927 370.367 228.339 370.841 227.675 371.185C227.011 371.53 226.285 371.738 225.54 371.799C224.794 371.859 224.044 371.77 223.333 371.537C222.622 371.304 221.965 370.932 221.4 370.442L187.65 342.317C187.017 341.789 186.507 341.129 186.158 340.382C185.808 339.635 185.627 338.821 185.627 337.996C185.627 337.172 185.808 336.358 186.158 335.611C186.507 334.864 187.017 334.204 187.65 333.676L221.4 305.551C222.547 304.596 224.026 304.136 225.512 304.272C226.998 304.407 228.369 305.128 229.324 306.275C230.279 307.422 230.739 308.901 230.603 310.387C230.467 311.873 229.747 313.244 228.6 314.199ZM352.35 333.676L318.6 305.551C318.032 305.078 317.377 304.722 316.671 304.502C315.966 304.283 315.224 304.204 314.488 304.272C313.752 304.339 313.037 304.55 312.383 304.894C311.729 305.238 311.149 305.707 310.676 306.275C309.721 307.422 309.261 308.901 309.397 310.387C309.533 311.873 310.253 313.244 311.4 314.199L339.961 338L311.4 361.801C310.816 362.268 310.331 362.847 309.974 363.504C309.617 364.161 309.394 364.883 309.319 365.627C309.244 366.372 309.318 367.123 309.537 367.838C309.756 368.554 310.115 369.218 310.594 369.793C311.073 370.367 311.661 370.841 312.325 371.185C312.989 371.53 313.715 371.738 314.461 371.799C315.206 371.859 315.956 371.77 316.667 371.537C317.378 371.304 318.035 370.932 318.6 370.442L352.35 342.317C352.983 341.789 353.493 341.129 353.842 340.382C354.192 339.635 354.373 338.821 354.373 337.996C354.373 337.172 354.192 336.358 353.842 335.611C353.493 334.864 352.983 334.204 352.35 333.676ZM294.42 270.837C293.725 270.585 292.988 270.472 292.25 270.505C291.512 270.538 290.788 270.716 290.118 271.029C289.449 271.341 288.848 271.783 288.35 272.328C287.851 272.873 287.465 273.511 287.213 274.205L242.213 397.955C241.959 398.65 241.846 399.388 241.878 400.127C241.91 400.866 242.088 401.591 242.401 402.261C242.713 402.931 243.155 403.533 243.701 404.032C244.247 404.531 244.885 404.917 245.58 405.169C246.197 405.388 246.846 405.5 247.5 405.5C248.655 405.5 249.782 405.144 250.728 404.481C251.674 403.818 252.393 402.88 252.788 401.794L297.788 278.044C298.04 277.35 298.152 276.613 298.12 275.875C298.087 275.137 297.909 274.413 297.596 273.743C297.283 273.074 296.842 272.473 296.297 271.974C295.752 271.476 295.114 271.09 294.42 270.837Z" fill="black"/>
<path d="M70.7383 291.397C69.5339 292.748 68.9316 294.693 68.9316 297.232C68.9316 299.771 69.5339 301.716 70.7383 303.067C71.959 304.418 73.7087 305.094 75.9873 305.094C78.266 305.094 80.0075 304.418 81.2119 303.067C82.4326 301.716 83.043 299.78 83.043 297.257V297.208C83.043 294.685 82.4326 292.748 81.2119 291.397C80.0075 290.047 78.266 289.371 75.9873 289.371C73.7087 289.371 71.959 290.047 70.7383 291.397ZM75.9873 309C75.141 309 74.3353 308.927 73.5703 308.78L73.3262 308.731C70.722 308.194 68.6875 306.909 67.2227 304.874C65.7578 302.84 65.0254 300.292 65.0254 297.232C65.0254 294.156 65.766 291.601 67.2471 289.566C68.7282 287.532 70.779 286.254 73.3994 285.733L73.6436 285.66C74.3923 285.53 75.1735 285.465 75.9873 285.465C76.8011 285.465 77.5905 285.538 78.3555 285.685L78.5752 285.733C80.4144 286.124 81.9036 286.995 83.043 288.346V285.489H86.9492V309H83.043V306.119C81.9199 307.454 80.4551 308.325 78.6484 308.731L78.3799 308.78C77.6149 308.927 76.8174 309 75.9873 309ZM96.0801 296.646V309H92.1738V285.489H96.0801V287.662C96.5521 287.19 97.0729 286.799 97.6426 286.49C98.9772 285.823 100.483 285.489 102.159 285.489C103.819 285.489 105.325 285.823 106.676 286.49C108.401 287.369 109.744 288.744 110.704 290.616C111.648 292.488 112.12 294.693 112.12 297.232V309H108.238V297.232C108.238 294.71 107.709 292.765 106.651 291.397C105.61 290.047 104.112 289.371 102.159 289.371C100.271 289.371 98.8063 289.998 97.7646 291.251C96.723 292.504 96.1615 294.303 96.0801 296.646ZM121.764 291.397C120.559 292.748 119.957 294.693 119.957 297.232C119.957 299.771 120.559 301.716 121.764 303.067C122.984 304.418 124.734 305.094 127.013 305.094C129.291 305.094 131.033 304.418 132.237 303.067C133.458 301.716 134.068 299.78 134.068 297.257V297.208C134.068 294.685 133.458 292.748 132.237 291.397C131.033 290.047 129.291 289.371 127.013 289.371C124.734 289.371 122.984 290.047 121.764 291.397ZM127.013 309C126.166 309 125.361 308.927 124.596 308.78L124.352 308.731C121.747 308.194 119.713 306.909 118.248 304.874C116.783 302.84 116.051 300.292 116.051 297.232C116.051 294.156 116.791 291.601 118.272 289.566C119.754 287.532 121.804 286.254 124.425 285.733L124.669 285.66C125.418 285.53 126.199 285.465 127.013 285.465C127.826 285.465 128.616 285.538 129.381 285.685L129.601 285.733C131.44 286.124 132.929 286.995 134.068 288.346V273.893H137.975V309H134.068V306.119C132.945 307.454 131.48 308.325 129.674 308.731L129.405 308.78C128.64 308.927 127.843 309 127.013 309Z" fill="black"/>
</svg>
