<svg width="180" height="227" viewBox="0 0 180 227" fill="none" xmlns="http://www.w3.org/2000/svg">
<path d="M48.6 66.1992L20.0391 89.9999L48.6 113.801C49.1839 114.268 49.6687 114.847 50.0261 115.504C50.3835 116.161 50.6062 116.883 50.6813 117.627C50.7563 118.372 50.6822 119.123 50.4633 119.838C50.2444 120.554 49.885 121.218 49.4062 121.793C48.9274 122.367 48.3388 122.841 47.6749 123.185C47.011 123.53 46.285 123.738 45.5395 123.799C44.794 123.859 44.0439 123.77 43.3331 123.537C42.6223 123.304 41.9651 122.932 41.4 122.442L7.64999 94.3171C7.0167 93.7892 6.5072 93.1286 6.15756 92.3819C5.80792 91.6353 5.62668 90.8209 5.62668 89.9964C5.62668 89.172 5.80792 88.3576 6.15756 87.6109C6.5072 86.8643 7.0167 86.2036 7.64999 85.6757L41.4 57.5507C42.5468 56.5959 44.026 56.1359 45.5121 56.2717C46.9982 56.4075 48.3694 57.1281 49.3242 58.2749C50.279 59.4218 50.7391 60.901 50.6033 62.387C50.4674 63.8731 49.7469 65.2444 48.6 66.1992ZM172.35 85.6757L138.6 57.5507C138.032 57.078 137.377 56.7217 136.671 56.5022C135.966 56.2828 135.224 56.2044 134.488 56.2717C133.752 56.3389 133.037 56.5504 132.383 56.8942C131.729 57.2379 131.149 57.7071 130.676 58.2749C129.721 59.4218 129.261 60.901 129.397 62.387C129.533 63.8731 130.253 65.2444 131.4 66.1992L159.961 89.9999L131.4 113.801C130.816 114.268 130.331 114.847 129.974 115.504C129.617 116.161 129.394 116.883 129.319 117.627C129.244 118.372 129.318 119.123 129.537 119.838C129.756 120.554 130.115 121.218 130.594 121.793C131.073 122.367 131.661 122.841 132.325 123.185C132.989 123.53 133.715 123.738 134.461 123.799C135.206 123.859 135.956 123.77 136.667 123.537C137.378 123.304 138.035 122.932 138.6 122.442L172.35 94.3171C172.983 93.7892 173.493 93.1286 173.842 92.3819C174.192 91.6353 174.373 90.8209 174.373 89.9964C174.373 89.172 174.192 88.3576 173.842 87.6109C173.493 86.8643 172.983 86.2036 172.35 85.6757ZM114.42 22.8374C113.725 22.5853 112.988 22.4725 112.25 22.5053C111.512 22.5381 110.788 22.716 110.118 23.0287C109.449 23.3415 108.848 23.783 108.35 24.3281C107.851 24.8731 107.465 25.511 107.213 26.2054L62.2125 149.955C61.9593 150.65 61.8456 151.388 61.8779 152.127C61.9102 152.866 62.0878 153.591 62.4006 154.261C62.7135 154.931 63.1553 155.533 63.701 156.032C64.2466 156.531 64.8853 156.917 65.5805 157.169C66.1967 157.388 66.846 157.5 67.5 157.5C68.6552 157.5 69.7823 157.144 70.7283 156.481C71.6743 155.818 72.3933 154.88 72.7875 153.794L117.788 30.0445C118.04 29.3501 118.152 28.6129 118.12 27.8749C118.087 27.1369 117.909 26.4126 117.596 25.7434C117.283 25.0742 116.842 24.4731 116.297 23.9745C115.752 23.4759 115.114 23.0895 114.42 22.8374Z" fill="black"/>
<path d="M95.124 196.397C93.9196 197.748 93.3174 199.693 93.3174 202.232C93.3174 204.771 93.9196 206.716 95.124 208.067C96.3447 209.418 98.0944 210.094 100.373 210.094C102.652 210.094 104.401 209.418 105.622 208.067C106.826 206.716 107.429 204.771 107.429 202.232C107.429 199.693 106.826 197.748 105.622 196.397C104.401 195.047 102.652 194.371 100.373 194.371C98.0944 194.371 96.3447 195.047 95.124 196.397ZM108.356 193.663C110.342 195.812 111.335 198.668 111.335 202.232C111.335 205.813 110.342 208.67 108.356 210.802C106.371 212.934 103.71 214 100.373 214C97.0365 214 94.3753 212.934 92.3896 210.802C90.404 208.67 89.4111 205.813 89.4111 202.232C89.4111 198.668 90.404 195.812 92.3896 193.663C94.3753 191.531 97.0365 190.465 100.373 190.465C103.71 190.465 106.371 191.531 108.356 193.663ZM119.147 201.646V214H115.241V190.489H119.147V192.662C119.619 192.19 120.14 191.799 120.71 191.49C122.045 190.823 123.55 190.489 125.227 190.489C126.887 190.489 128.392 190.823 129.743 191.49C131.468 192.369 132.811 193.744 133.771 195.616C134.715 197.488 135.188 199.693 135.188 202.232V214H131.306V202.232C131.306 199.71 130.777 197.765 129.719 196.397C128.677 195.047 127.18 194.371 125.227 194.371C123.339 194.371 121.874 194.998 120.832 196.251C119.79 197.504 119.229 199.303 119.147 201.646ZM143.024 201.646V214H139.118V190.514H143.024V193.37C144.147 192.052 145.612 191.181 147.419 190.758L147.688 190.709C148.257 190.611 148.851 190.546 149.47 190.514V194.42C147.484 194.534 145.938 195.209 144.831 196.446C143.724 197.683 143.122 199.417 143.024 201.646ZM171.589 190.416V215.758C171.589 219.029 170.612 221.65 168.659 223.619C166.706 225.572 164.094 226.549 160.822 226.549C156.46 226.549 153.36 224.938 151.521 221.715L155.036 219.981C156.159 221.756 158.088 222.643 160.822 222.643C163.036 222.643 164.737 222.049 165.925 220.86C167.097 219.688 167.683 217.988 167.683 215.758V211.827C167.194 212.299 166.674 212.69 166.12 212.999C164.785 213.666 163.28 214 161.604 214C159.927 214 158.422 213.666 157.087 212.999C155.362 212.12 154.019 210.745 153.059 208.873C152.115 207.001 151.643 204.788 151.643 202.232V190.416H155.524V202.232C155.524 204.771 156.053 206.716 157.111 208.067C158.153 209.435 159.65 210.118 161.604 210.118C163.492 210.118 164.956 209.492 165.998 208.238C167.04 206.985 167.601 205.187 167.683 202.843V190.416H171.589Z" fill="black"/>
</svg>
