<svg width="16" height="16" viewBox="0 0 16 16" fill="none" xmlns="http://www.w3.org/2000/svg">
<path fill-rule="evenodd" clip-rule="evenodd" d="M8.74202 13.0469C8.9867 11.9793 9.15683 10.4845 9.19792 8.79446L9.57281 8.80357C9.53133 10.5099 9.35953 12.0312 9.10755 13.1306C8.98191 13.6788 8.83411 14.1322 8.66711 14.4529C8.58374 14.613 8.49086 14.7494 8.38597 14.848C8.28035 14.9472 8.15056 15.0187 8 15.0187C7.82719 15.0187 7.68252 14.9251 7.56831 14.8018C7.45374 14.6782 7.35191 14.5064 7.26042 14.3028C7.07688 13.8944 6.91692 13.3166 6.78705 12.6211L7.15567 12.5523C7.28324 13.2354 7.43656 13.7799 7.60247 14.1491C7.6857 14.3343 7.76766 14.4652 7.84341 14.547C7.91955 14.6292 7.97178 14.6437 8 14.6437C8.02483 14.6437 8.06728 14.6329 8.12914 14.5747C8.19172 14.5159 8.26155 14.4198 8.3345 14.2797C8.48011 14.0001 8.61933 13.5822 8.74202 13.0469Z" fill="url(#paint0_linear_24_21)"/>
<path fill-rule="evenodd" clip-rule="evenodd" d="M7.37538 2.49374C7.15097 3.27851 6.97276 4.39604 6.87501 5.70827L6.50104 5.68041C6.59982 4.35435 6.78079 3.2091 7.01483 2.39065C7.13146 1.98282 7.26419 1.64548 7.41291 1.40596C7.55437 1.17816 7.74701 0.981262 7.99997 0.981262C8.15054 0.981262 8.28032 1.05275 8.38594 1.15204C8.49082 1.25062 8.58371 1.387 8.66707 1.54709C8.83408 1.86782 8.98187 2.32116 9.10752 2.86937C9.35951 3.9688 9.5313 5.49013 9.57277 7.19643L9.1979 7.20554C9.1568 5.51552 8.98668 4.02074 8.74199 2.95315C8.6193 2.41784 8.48008 1.99993 8.33446 1.72029C8.26152 1.5802 8.19169 1.48411 8.1291 1.42528C8.06726 1.36714 8.02479 1.35626 7.99997 1.35626C7.95616 1.35626 7.86097 1.39527 7.73149 1.60379C7.60929 1.80059 7.48799 2.09996 7.37538 2.49374Z" fill="url(#paint1_linear_24_21)"/>
<path fill-rule="evenodd" clip-rule="evenodd" d="M6.87503 5.70828C6.82173 6.42376 6.79248 7.19537 6.79248 8.00001C6.79248 9.75667 6.93187 11.3537 7.15567 12.5523L6.78703 12.6211C6.55806 11.3949 6.41748 9.77405 6.41748 8.00001C6.41748 7.18644 6.44704 6.40551 6.50106 5.68042L6.87503 5.70828Z" fill="url(#paint2_linear_24_21)"/>
<path fill-rule="evenodd" clip-rule="evenodd" d="M6.70002 8.63698C5.48356 7.89436 4.43261 7.14134 3.65208 6.47589L3.40878 6.76127C4.2076 7.44228 5.27538 8.20663 6.50463 8.95705L6.70002 8.63698Z" fill="url(#paint3_linear_24_21)"/>
<path fill-rule="evenodd" clip-rule="evenodd" d="M11.9921 11.1661C10.9453 10.8443 9.5658 10.2443 8.08177 9.43493L7.90222 9.76415C9.40055 10.5813 10.8038 11.1931 11.8819 11.5245C12.4194 11.6898 12.8859 11.7885 13.2471 11.8042C13.4274 11.812 13.592 11.7998 13.7298 11.7582C13.8685 11.7164 13.9953 11.6398 14.0706 11.5094C14.1976 11.2894 14.1224 11.0229 13.9946 10.7854C13.8603 10.5356 13.6325 10.2504 13.3351 9.94377C12.7383 9.32835 11.8297 8.59485 10.7226 7.84274L10.5119 8.15293C11.6075 8.89723 12.4934 9.61452 13.0659 10.2048C13.3532 10.501 13.5538 10.7575 13.6644 10.9631C13.7816 11.181 13.7679 11.2837 13.7459 11.3219C13.7335 11.3434 13.7028 11.3747 13.6215 11.3992C13.5393 11.424 13.4212 11.4364 13.2634 11.4296C12.9485 11.4158 12.517 11.3275 11.9921 11.1661Z" fill="url(#paint4_linear_24_21)"/>
<path fill-rule="evenodd" clip-rule="evenodd" d="M8.59596 6.95426C9.28206 7.35037 9.92624 7.75504 10.5119 8.15291L10.7226 7.84273C10.1291 7.43952 9.47718 7.03002 8.78346 6.62949C7.14202 5.68182 5.57134 4.96029 4.35848 4.55738C3.75351 4.35643 3.22824 4.23156 2.82359 4.20098C2.62176 4.18573 2.43909 4.19299 2.28748 4.23254C2.13559 4.27216 1.99495 4.35004 1.91379 4.49062C1.82671 4.64145 1.83627 4.81502 1.88698 4.97671C1.93788 5.13909 2.0374 5.31473 2.17013 5.49755C2.43646 5.86437 2.86337 6.2963 3.40876 6.76127L3.65204 6.47591C3.11624 6.01912 2.71474 5.60937 2.47359 5.27724C2.3526 5.1106 2.27863 4.97245 2.24479 4.86452C2.21074 4.75595 2.22434 4.70274 2.23854 4.67812C2.25184 4.6551 2.28662 4.62032 2.38213 4.5954C2.47793 4.57041 2.61468 4.56126 2.79532 4.57491C3.1556 4.60213 3.64748 4.71635 4.24026 4.91327C5.42287 5.30612 6.97006 6.01554 8.59596 6.95426Z" fill="url(#paint5_linear_24_21)"/>
<path fill-rule="evenodd" clip-rule="evenodd" d="M8.13249 6.54593C9.39213 5.86101 10.5757 5.32728 11.5428 4.98746L11.4185 4.63367C10.4283 4.98159 9.22621 5.52439 7.95337 6.21648L8.13249 6.54593Z" fill="url(#paint6_linear_24_21)"/>
<path fill-rule="evenodd" clip-rule="evenodd" d="M3.25743 9.88887C4.05379 9.14696 5.2551 8.25648 6.68966 7.37883L6.49396 7.05896C5.04557 7.94507 3.8221 8.85029 3.0018 9.61448C2.59279 9.99552 2.27643 10.3485 2.08373 10.6521C1.98752 10.8036 1.91646 10.9517 1.88391 11.0913C1.85113 11.2319 1.85437 11.3795 1.92937 11.5094C2.05618 11.729 2.32404 11.7972 2.59299 11.8055C2.87588 11.8142 3.2359 11.7599 3.64916 11.6562C4.47854 11.448 5.56541 11.0294 6.76773 10.4486L6.60462 10.1109C5.41482 10.6857 4.35329 11.0928 3.55787 11.2925C3.15874 11.3927 2.83726 11.4379 2.60455 11.4307C2.35794 11.4231 2.27612 11.36 2.25413 11.3219C2.24176 11.3005 2.22999 11.2585 2.24913 11.1764C2.26849 11.0933 2.31626 10.9855 2.40033 10.853C2.56816 10.5886 2.8581 10.2609 3.25743 9.88887Z" fill="url(#paint7_linear_24_21)"/>
<path fill-rule="evenodd" clip-rule="evenodd" d="M8.61154 9.04574C7.92154 9.44411 7.24525 9.80145 6.60461 10.1109L6.76774 10.4486C7.41696 10.135 8.10138 9.7733 8.79904 9.37049C10.4405 8.42281 11.8507 7.42333 12.806 6.57441C13.2826 6.15097 13.6533 5.75852 13.8821 5.42335C13.9963 5.2562 14.0813 5.09436 14.1228 4.94328C14.1645 4.79194 14.1674 4.6312 14.0862 4.49063C14.0001 4.34153 13.8475 4.26308 13.6844 4.22566C13.5208 4.18811 13.3222 4.18549 13.1015 4.20758C12.6586 4.25189 12.0818 4.40058 11.4184 4.63367L11.5428 4.98745C12.1942 4.75856 12.7388 4.62074 13.1388 4.58072C13.3395 4.56064 13.4927 4.56641 13.6005 4.59116C13.7089 4.61603 13.7474 4.65378 13.7614 4.67813C13.7747 4.70114 13.7875 4.74866 13.7613 4.84383C13.735 4.9393 13.6746 5.06228 13.5724 5.21191C13.3687 5.5103 13.0239 5.87917 12.5569 6.29408C11.6254 7.12183 10.2374 8.10702 8.61154 9.04574Z" fill="url(#paint8_linear_24_21)"/>
<path d="M7.03087 13.0601C7.3014 13.0601 7.52072 12.8408 7.52072 12.5702C7.52072 12.2997 7.3014 12.0804 7.03087 12.0804C6.76033 12.0804 6.54102 12.2997 6.54102 12.5702C6.54102 12.8408 6.76033 13.0601 7.03087 13.0601Z" fill="white"/>
<path d="M3.12548 6.30922C3.26075 6.07493 3.56034 5.99466 3.79463 6.12992C4.02892 6.26519 4.1092 6.56478 3.97393 6.79907C3.83866 7.03337 3.53907 7.11364 3.30478 6.97837C3.07049 6.8431 2.99021 6.54351 3.12548 6.30922Z" fill="white"/>
<path d="M11.9054 4.63069C12.0407 4.86498 11.9604 5.16457 11.7261 5.29984C11.4918 5.43511 11.1922 5.35484 11.0569 5.12054C10.9217 4.88625 11.0019 4.58666 11.2362 4.45139C11.4705 4.31613 11.7701 4.3964 11.9054 4.63069Z" fill="white"/>
<path fill-rule="evenodd" clip-rule="evenodd" d="M8.0002 7.1474C8.4712 7.1474 8.85301 7.52921 8.85301 8.0002C8.85301 8.4712 8.4712 8.85301 8.0002 8.85301C7.52921 8.85301 7.1474 8.4712 7.1474 8.0002C7.1474 7.52921 7.52921 7.1474 8.0002 7.1474Z" fill="white"/>
<defs>
<linearGradient id="paint0_linear_24_21" x1="8.17992" y1="15.0187" x2="9.9917" y2="8.91889" gradientUnits="userSpaceOnUse">
<stop offset="0.377307" stop-color="white" stop-opacity="0.6"/>
<stop offset="0.992239" stop-color="white" stop-opacity="0"/>
</linearGradient>
<linearGradient id="paint1_linear_24_21" x1="8.03691" y1="0.981262" x2="10.3738" y2="6.89063" gradientUnits="userSpaceOnUse">
<stop offset="0.634963" stop-color="white" stop-opacity="0.81"/>
<stop offset="1" stop-color="white" stop-opacity="0"/>
</linearGradient>
<linearGradient id="paint2_linear_24_21" x1="7.14842" y1="5.68042" x2="7.14842" y2="12.6291" gradientUnits="userSpaceOnUse">
<stop stop-color="white" stop-opacity="0.81"/>
<stop offset="0.646422" stop-color="white"/>
</linearGradient>
<linearGradient id="paint3_linear_24_21" x1="3.66225" y1="6.42739" x2="6.72658" y2="8.58898" gradientUnits="userSpaceOnUse">
<stop stop-color="white" stop-opacity="0.6"/>
<stop offset="1" stop-color="white" stop-opacity="0"/>
</linearGradient>
<linearGradient id="paint4_linear_24_21" x1="14.428" y1="11.485" x2="7.63333" y2="10.3542" gradientUnits="userSpaceOnUse">
<stop offset="0.60731" stop-color="white" stop-opacity="0.81"/>
<stop offset="1" stop-color="white" stop-opacity="0"/>
</linearGradient>
<linearGradient id="paint5_linear_24_21" x1="10.5409" y1="7.7782" x2="1.72073" y2="4.50779" gradientUnits="userSpaceOnUse">
<stop stop-color="white" stop-opacity="0.81"/>
<stop offset="0.478389" stop-color="white"/>
</linearGradient>
<linearGradient id="paint6_linear_24_21" x1="11.6129" y1="5.01371" x2="7.93824" y2="6.72115" gradientUnits="userSpaceOnUse">
<stop stop-color="white" stop-opacity="0.6"/>
<stop offset="1" stop-color="white" stop-opacity="0"/>
</linearGradient>
<linearGradient id="paint7_linear_24_21" x1="1.72532" y1="11.5343" x2="6.32529" y2="6.73721" gradientUnits="userSpaceOnUse">
<stop offset="0.54518" stop-color="white" stop-opacity="0.81"/>
<stop offset="1" stop-color="white" stop-opacity="0"/>
</linearGradient>
<linearGradient id="paint8_linear_24_21" x1="14.2751" y1="4.31688" x2="6.84788" y2="10.4945" gradientUnits="userSpaceOnUse">
<stop offset="0.518582" stop-color="white"/>
<stop offset="1" stop-color="white" stop-opacity="0.81"/>
</linearGradient>
</defs>
</svg>
