<svg width="180" height="233" viewBox="0 0 180 233" fill="none" xmlns="http://www.w3.org/2000/svg">
<path d="M162.169 34.7063C160.079 32.6165 157.599 30.9587 154.869 29.8276C152.138 28.6966 149.212 28.1144 146.257 28.1144C143.302 28.1144 140.376 28.6966 137.645 29.8276C134.915 30.9587 132.435 32.6165 130.345 34.7063C128.929 36.1217 127.709 37.7203 126.717 39.4595L106.875 34.0454C106.936 29.569 105.661 25.1761 103.212 21.4286C100.763 17.6811 97.2515 14.7493 93.1271 13.0084C89.0026 11.2674 84.4526 10.7964 80.0591 11.6555C75.6655 12.5147 71.6281 14.665 68.4633 17.8313C65.0841 21.2185 62.8703 25.593 62.1422 30.3218C61.4141 35.0506 62.2095 39.8885 64.4133 44.1352L40.5492 65.6157C36.2195 62.754 31.0347 61.4745 25.8707 61.9933C20.7068 62.5122 15.8801 64.7975 12.2063 68.4634C8.09837 72.5401 5.71937 78.043 5.56365 83.8283C5.40793 89.6136 7.48749 95.2365 11.3701 99.5283C15.2527 103.82 20.6398 106.451 26.4118 106.874C32.1838 107.296 37.8967 105.479 42.3633 101.799L91.582 137.911C90.0069 141.855 89.5803 146.165 90.3517 150.342C91.123 154.518 93.0608 158.391 95.9409 161.513C98.821 164.634 102.526 166.877 106.627 167.982C110.728 169.086 115.058 169.007 119.116 167.754C123.175 166.501 126.795 164.124 129.559 160.9C132.324 157.675 134.119 153.734 134.738 149.532C135.356 145.33 134.773 141.039 133.055 137.155C131.337 133.27 128.555 129.952 125.03 127.582L144.288 73.0266C144.935 73.0829 145.582 73.111 146.229 73.111C150.678 73.1104 155.027 71.7906 158.726 69.3187C162.426 66.8468 165.309 63.3336 167.012 59.2232C168.715 55.1129 169.161 50.5899 168.294 46.2261C167.427 41.8622 165.286 37.8534 162.141 34.7063H162.169ZM76.3875 25.7837C77.9613 24.2116 79.9659 23.1414 82.1479 22.7083C84.3298 22.2752 86.5912 22.4988 88.6461 23.3506C90.701 24.2025 92.4573 25.6444 93.6929 27.4942C94.9285 29.344 95.588 31.5186 95.588 33.7431C95.588 35.9676 94.9285 38.1421 93.6929 39.9919C92.4573 41.8417 90.701 43.2837 88.6461 44.1355C86.5912 44.9874 84.3298 45.2109 82.1479 44.7778C79.9659 44.3447 77.9613 43.2745 76.3875 41.7024C75.3434 40.6558 74.5158 39.4136 73.952 38.0468C73.3883 36.6801 73.0995 35.2157 73.1021 33.7372C73.1047 32.2588 73.3987 30.7954 73.9672 29.4307C74.5358 28.0659 75.3678 26.8267 76.4156 25.7837H76.3875ZM20.1375 92.3345C19.0915 91.2896 18.2617 90.0489 17.6956 88.6832C17.1294 87.3174 16.838 85.8535 16.838 84.3751C16.838 82.8967 17.1294 81.4327 17.6956 80.067C18.2617 78.7013 19.0915 77.4605 20.1375 76.4157C21.7113 74.8436 23.7159 73.7734 25.8979 73.3403C28.0798 72.9073 30.3412 73.1308 32.3961 73.9826C34.451 74.8345 36.2073 76.2764 37.4429 78.1262C38.6785 79.976 39.338 82.1506 39.338 84.3751C39.338 86.5996 38.6785 88.7742 37.4429 90.6239C36.2073 92.4737 34.451 93.9157 32.3961 94.7675C30.3412 95.6194 28.0798 95.8429 25.8979 95.4098C23.7159 94.9768 21.7113 93.9066 20.1375 92.3345ZM120.438 154.209C118.328 156.32 115.466 157.505 112.482 157.505C109.498 157.505 106.637 156.32 104.527 154.209C102.417 152.099 101.231 149.238 101.231 146.254C101.231 143.27 102.417 140.408 104.527 138.298C105.571 137.253 106.812 136.424 108.177 135.859C109.542 135.293 111.005 135.002 112.482 135.002C113.96 135.002 115.423 135.293 116.788 135.859C118.153 136.424 119.393 137.253 120.438 138.298C121.483 139.343 122.312 140.583 122.877 141.948C123.443 143.313 123.734 144.776 123.734 146.254C123.734 147.731 123.443 149.194 122.877 150.559C122.312 151.924 121.483 153.165 120.438 154.209ZM114.427 123.849C108.594 123.341 102.792 125.126 98.2547 128.827L49.0359 92.7141C50.2287 89.7052 50.7618 86.4753 50.5993 83.2427C50.4367 80.0101 49.5823 76.85 48.0938 73.9759L71.9648 52.4954C74.5329 54.1975 77.4233 55.3541 80.4566 55.8934C83.49 56.4327 86.6019 56.3433 89.5993 55.6306C92.5967 54.918 95.4158 53.5974 97.8819 51.7507C100.348 49.9039 102.409 47.5704 103.936 44.8946L123.75 50.3157C123.696 54.056 124.576 57.7506 126.31 61.0654C128.043 64.3801 130.576 67.2104 133.678 69.3001L114.427 123.849ZM154.195 58.5704C153.167 59.6821 151.924 60.5746 150.542 61.1945C149.161 61.8144 147.668 62.1488 146.154 62.1779C144.639 62.2069 143.135 61.9299 141.73 61.3635C140.326 60.797 139.05 59.9528 137.979 58.8814C136.909 57.81 136.066 56.5335 135.501 55.1284C134.935 53.7233 134.66 52.2185 134.69 50.7043C134.72 49.1901 135.056 47.6976 135.677 46.3163C136.298 44.935 137.192 43.6933 138.305 42.6657C140.415 40.5557 143.277 39.3703 146.261 39.3703C149.245 39.3703 152.106 40.5557 154.216 42.6657C156.326 44.7757 157.512 47.6376 157.512 50.6216C157.512 53.6056 156.326 56.4674 154.216 58.5774L154.195 58.5704Z" fill="black"/>
<path d="M95.124 202.397C93.9196 203.748 93.3174 205.693 93.3174 208.232C93.3174 210.771 93.9196 212.716 95.124 214.067C96.3447 215.418 98.0944 216.094 100.373 216.094C102.652 216.094 104.401 215.418 105.622 214.067C106.826 212.716 107.429 210.771 107.429 208.232C107.429 205.693 106.826 203.748 105.622 202.397C104.401 201.047 102.652 200.371 100.373 200.371C98.0944 200.371 96.3447 201.047 95.124 202.397ZM108.356 199.663C110.342 201.812 111.335 204.668 111.335 208.232C111.335 211.813 110.342 214.67 108.356 216.802C106.371 218.934 103.71 220 100.373 220C97.0365 220 94.3753 218.934 92.3896 216.802C90.404 214.67 89.4111 211.813 89.4111 208.232C89.4111 204.668 90.404 201.812 92.3896 199.663C94.3753 197.531 97.0365 196.465 100.373 196.465C103.71 196.465 106.371 197.531 108.356 199.663ZM119.147 207.646V220H115.241V196.489H119.147V198.662C119.619 198.19 120.14 197.799 120.71 197.49C122.045 196.823 123.55 196.489 125.227 196.489C126.887 196.489 128.392 196.823 129.743 197.49C131.468 198.369 132.811 199.744 133.771 201.616C134.715 203.488 135.188 205.693 135.188 208.232V220H131.306V208.232C131.306 205.71 130.777 203.765 129.719 202.397C128.677 201.047 127.18 200.371 125.227 200.371C123.339 200.371 121.874 200.998 120.832 202.251C119.79 203.504 119.229 205.303 119.147 207.646ZM143.024 207.646V220H139.118V196.514H143.024V199.37C144.147 198.052 145.612 197.181 147.419 196.758L147.688 196.709C148.257 196.611 148.851 196.546 149.47 196.514V200.42C147.484 200.534 145.938 201.209 144.831 202.446C143.724 203.683 143.122 205.417 143.024 207.646ZM171.589 196.416V221.758C171.589 225.029 170.612 227.65 168.659 229.619C166.706 231.572 164.094 232.549 160.822 232.549C156.46 232.549 153.36 230.938 151.521 227.715L155.036 225.981C156.159 227.756 158.088 228.643 160.822 228.643C163.036 228.643 164.737 228.049 165.925 226.86C167.097 225.688 167.683 223.988 167.683 221.758V217.827C167.194 218.299 166.674 218.69 166.12 218.999C164.785 219.666 163.28 220 161.604 220C159.927 220 158.422 219.666 157.087 218.999C155.362 218.12 154.019 216.745 153.059 214.873C152.115 213.001 151.643 210.788 151.643 208.232V196.416H155.524V208.232C155.524 210.771 156.053 212.716 157.111 214.067C158.153 215.435 159.65 216.118 161.604 216.118C163.492 216.118 164.956 215.492 165.998 214.238C167.04 212.985 167.601 211.187 167.683 208.843V196.416H171.589Z" fill="black"/>
</svg>
