<svg width="16" height="16" viewBox="0 0 16 16" fill="none" xmlns="http://www.w3.org/2000/svg">
<g clip-path="url(#clip0_24_47)">
<mask id="mask0_24_47" style="mask-type:luminance" maskUnits="userSpaceOnUse" x="0" y="0" width="16" height="16">
<path d="M16 0H0V16H16V0Z" fill="white"/>
</mask>
<g mask="url(#mask0_24_47)">
<path d="M7.99948 3.35588C9.694 3.35588 11.0677 2.60464 11.0677 1.67794C11.0677 0.751239 9.694 0 7.99948 0C6.30495 0 4.93124 0.751239 4.93124 1.67794C4.93124 2.60464 6.30495 3.35588 7.99948 3.35588Z" fill="white"/>
<path d="M7.99948 15.9989C9.694 15.9989 11.0677 15.2476 11.0677 14.3209C11.0677 13.3942 9.694 12.643 7.99948 12.643C6.30495 12.643 4.93124 13.3942 4.93124 14.3209C4.93124 15.2476 6.30495 15.9989 7.99948 15.9989Z" fill="white"/>
<path d="M3.7236 5.67854C4.57087 4.29868 4.56537 2.80421 3.71132 2.34054C2.85726 1.87688 1.47806 2.6196 0.630788 3.99947C-0.216481 5.37934 -0.210982 6.87379 0.643076 7.33745C1.49713 7.80111 2.87632 7.05842 3.7236 5.67854Z" fill="white"/>
<path d="M15.3668 11.9993C16.214 10.6194 16.209 9.12519 15.3556 8.66187C14.5021 8.1985 13.1233 8.94148 12.2761 10.3214C11.4288 11.7012 11.4338 13.1954 12.2873 13.6588C13.1408 14.1221 14.5195 13.3792 15.3668 11.9993Z" fill="white"/>
<path d="M3.71181 13.6584C4.56586 13.1947 4.57136 11.7003 3.72409 10.3204C2.87682 8.9405 1.49761 8.19781 0.643561 8.66147C-0.210494 9.12513 -0.215993 10.6196 0.631278 11.9995C1.47855 13.3793 2.85775 14.122 3.71181 13.6584Z" fill="white"/>
<path d="M15.356 7.33786C16.2095 6.87454 16.2146 5.38028 15.3673 4.00043C14.52 2.62057 13.1413 1.87759 12.2878 2.34094C11.4343 2.80429 11.4293 4.29851 12.2766 5.67837C13.1238 7.05824 14.5025 7.80123 15.356 7.33786Z" fill="white"/>
</g>
</g>
<defs>
<clipPath id="clip0_24_47">
<rect width="16" height="16" fill="white"/>
</clipPath>
</defs>
</svg>
