<svg width="32" height="33" viewBox="0 0 32 33" fill="none" xmlns="http://www.w3.org/2000/svg">
<g clip-path="url(#clip0_4477_5006)">
<path d="M15.5139 6.9215C18.8002 6.9215 21.4643 5.37207 21.4643 3.46075C21.4643 1.54943 18.8002 0 15.5139 0C12.2276 0 9.56348 1.54943 9.56348 3.46075C9.56348 5.37207 12.2276 6.9215 15.5139 6.9215Z" fill="white"/>
<path d="M15.5139 32.9976C18.8002 32.9976 21.4643 31.4482 21.4643 29.5369C21.4643 27.6256 18.8002 26.0761 15.5139 26.0761C12.2276 26.0761 9.56348 27.6256 9.56348 29.5369C9.56348 31.4482 12.2276 32.9976 15.5139 32.9976Z" fill="white"/>
<path d="M7.22134 11.712C8.86451 8.86603 8.85384 5.78368 7.19752 4.82737C5.5412 3.87106 2.86643 5.40293 1.22326 8.2489C-0.419903 11.0949 -0.409238 14.1772 1.24709 15.1335C2.90341 16.0898 5.57817 14.558 7.22134 11.712Z" fill="white"/>
<path d="M29.8018 24.7485C31.4449 21.9026 31.4352 18.8207 29.78 17.8651C28.1248 16.9094 25.4509 18.4418 23.8077 21.2878C22.1646 24.1337 22.1743 27.2156 23.8295 28.1712C25.4847 29.1269 28.1586 27.5945 29.8018 24.7485Z" fill="white"/>
<path d="M7.1985 28.1704C8.85482 27.2141 8.86549 24.1318 7.22232 21.2858C5.57915 18.4398 2.90438 16.908 1.24806 17.8643C-0.408261 18.8206 -0.418926 21.9029 1.22424 24.7489C2.86741 27.5949 5.54217 29.1267 7.1985 28.1704Z" fill="white"/>
<path d="M29.7809 15.1343C31.4361 14.1787 31.4459 11.0968 29.8027 8.25086C28.1596 5.40489 25.4857 3.8725 23.8305 4.82816C22.1753 5.78382 22.1655 8.86564 23.8087 11.7116C25.4519 14.5576 28.1257 16.09 29.7809 15.1343Z" fill="white"/>
</g>
<defs>
<clipPath id="clip0_4477_5006">
<rect width="31.0298" height="33" fill="white"/>
</clipPath>
</defs>
</svg>
