<svg width="16" height="16" viewBox="0 0 16 16" fill="none" xmlns="http://www.w3.org/2000/svg">
<g clip-path="url(#clip0_24_58)">
<path d="M4.55856 14.9444C4.54656 14.9444 4.53473 14.9415 4.52406 14.936C4.51339 14.9305 4.5042 14.9225 4.49724 14.9127L0.013937 8.56372C0.00632507 8.55295 0.00168029 8.54036 0.000469849 8.52723C-0.000740591 8.51409 0.00152592 8.50087 0.00704083 8.48888L3.25418 1.42498C3.25968 1.41299 3.26824 1.40266 3.27901 1.39504C3.28978 1.38742 3.30236 1.38278 3.3155 1.38158L11.0457 0.666598C11.0589 0.665 11.0723 0.667095 11.0843 0.672648C11.0964 0.678202 11.1066 0.686996 11.114 0.698048L15.5973 7.04697C15.6049 7.05774 15.6095 7.07033 15.6108 7.08347C15.612 7.0966 15.6097 7.10982 15.6042 7.12181L12.3571 14.1859C12.3516 14.1979 12.343 14.2082 12.3323 14.2158C12.3215 14.2234 12.309 14.2281 12.2958 14.2293L4.56547 14.9442C4.56319 14.9444 4.56083 14.9444 4.55856 14.9444ZM0.161628 8.51236L4.59483 14.7905L12.2388 14.0836L15.4496 7.09832L11.0164 0.820154L3.37251 1.52707L0.161628 8.51236Z" fill="white"/>
<path d="M4.5315 14.9283L3.29073 8.46833L3.28467 1.4061L9.32981 3.18544L15.5983 7.0851L10.9427 11.2235L4.5315 14.9283ZM3.35991 1.50652L3.36514 8.4612L4.58537 14.8104L10.899 11.1629L15.4734 7.09558L9.29446 3.25189L3.35991 1.50652Z" fill="white"/>
<path d="M9.42904 3.48159C9.55338 3.48159 9.65417 3.3808 9.65417 3.25647C9.65417 3.13213 9.55338 3.03134 9.42904 3.03134C9.30471 3.03134 9.20392 3.13213 9.20392 3.25647C9.20392 3.3808 9.30471 3.48159 9.42904 3.48159Z" fill="white"/>
<path d="M9.42906 3.72099C9.33717 3.72108 9.24732 3.69392 9.17087 3.64294C9.09442 3.59195 9.03481 3.51944 8.99958 3.43457C8.96435 3.3497 8.95508 3.25629 8.97295 3.16616C8.99081 3.07602 9.03501 2.99321 9.09995 2.9282C9.16489 2.86318 9.24766 2.81889 9.33777 2.80093C9.42789 2.78296 9.52131 2.79212 9.60622 2.82726C9.69112 2.8624 9.7637 2.92193 9.81477 2.99832C9.86584 3.07471 9.8931 3.16453 9.89311 3.25642C9.89302 3.37952 9.84412 3.49755 9.75712 3.58464C9.67013 3.67173 9.55215 3.72077 9.42906 3.72099ZM9.42906 3.24301L9.41511 3.25642C9.41519 3.26006 9.41669 3.26352 9.4193 3.26605C9.42192 3.26858 9.42542 3.26998 9.42906 3.26993V3.24301Z" fill="white"/>
<path d="M10.9319 11.407C11.0562 11.407 11.157 11.3062 11.157 11.1819C11.157 11.0576 11.0562 10.9568 10.9319 10.9568C10.8076 10.9568 10.7068 11.0576 10.7068 11.1819C10.7068 11.3062 10.8076 11.407 10.9319 11.407Z" fill="white"/>
<path d="M10.9319 11.6465C10.84 11.6466 10.7501 11.6194 10.6737 11.5684C10.5972 11.5174 10.5376 11.4449 10.5024 11.36C10.4671 11.2751 10.4579 11.1817 10.4758 11.0916C10.4936 11.0014 10.5379 10.9186 10.6028 10.8536C10.6678 10.7886 10.7505 10.7443 10.8407 10.7263C10.9308 10.7084 11.0242 10.7176 11.1092 10.7527C11.1941 10.7879 11.2666 10.8474 11.3177 10.9238C11.3688 11.0002 11.396 11.0901 11.396 11.182C11.396 11.3051 11.347 11.4231 11.26 11.5102C11.173 11.5973 11.055 11.6463 10.9319 11.6465ZM10.9319 11.1685L10.918 11.1819C10.9181 11.1856 10.9196 11.189 10.9222 11.1915C10.9248 11.194 10.9283 11.1954 10.9319 11.1954V11.1685Z" fill="white"/>
<path d="M4.61352 15.0945C4.73785 15.0945 4.83865 14.9937 4.83865 14.8694C4.83865 14.745 4.73785 14.6443 4.61352 14.6443C4.48919 14.6443 4.3884 14.745 4.3884 14.8694C4.3884 14.9937 4.48919 15.0945 4.61352 15.0945Z" fill="white"/>
<path d="M4.61349 15.3339C4.52159 15.334 4.43172 15.3068 4.35527 15.2558C4.27882 15.2048 4.21921 15.1323 4.18398 15.0474C4.14876 14.9625 4.1395 14.8691 4.15737 14.779C4.17525 14.6888 4.21946 14.606 4.28442 14.541C4.34937 14.476 4.43215 14.4317 4.52228 14.4137C4.61241 14.3958 4.70584 14.405 4.79075 14.4401C4.87567 14.4753 4.94824 14.5348 4.99931 14.6112C5.05038 14.6876 5.07763 14.7775 5.07763 14.8694C5.07757 14.9925 5.02866 15.1105 4.94164 15.1976C4.85462 15.2847 4.7366 15.3337 4.61349 15.3339ZM4.61349 14.8559L4.59966 14.8693C4.59972 14.873 4.60121 14.8764 4.60381 14.8789C4.6064 14.8814 4.60988 14.8828 4.61349 14.8828V14.8559Z" fill="white"/>
<path d="M3.32223 8.7615C3.44656 8.7615 3.54736 8.6607 3.54736 8.53637C3.54736 8.41204 3.44656 8.31125 3.32223 8.31125C3.1979 8.31125 3.09711 8.41204 3.09711 8.53637C3.09711 8.6607 3.1979 8.7615 3.32223 8.7615Z" fill="white"/>
<path d="M3.32227 9.00083C3.23039 9.00091 3.14054 8.97374 3.06411 8.92275C2.98767 8.87176 2.92807 8.79924 2.89286 8.71437C2.85764 8.6295 2.84839 8.5361 2.86627 8.44597C2.88416 8.35584 2.92837 8.27304 2.99332 8.20805C3.05827 8.14305 3.14104 8.09879 3.23115 8.08084C3.32127 8.0629 3.41468 8.07209 3.49957 8.10725C3.58447 8.1424 3.65702 8.20195 3.70806 8.27835C3.75911 8.35476 3.78634 8.44459 3.78632 8.53647C3.78618 8.65953 3.73726 8.77752 3.65027 8.86456C3.56329 8.95161 3.44533 9.00061 3.32227 9.00083ZM3.32227 8.52284L3.30833 8.53647C3.30844 8.54008 3.30996 8.54351 3.31257 8.54602C3.31517 8.54852 3.31866 8.54991 3.32227 8.54988V8.52284Z" fill="white"/>
<path d="M15.5359 7.32674C15.6602 7.32674 15.761 7.22595 15.761 7.10162C15.761 6.97729 15.6602 6.8765 15.5359 6.8765C15.4115 6.8765 15.3107 6.97729 15.3107 7.10162C15.3107 7.22595 15.4115 7.32674 15.5359 7.32674Z" fill="white"/>
<path d="M15.5359 7.56604C15.444 7.5661 15.3541 7.53891 15.2777 7.48791C15.2013 7.43691 15.1417 7.36438 15.1065 7.27951C15.0713 7.19464 15.0621 7.10124 15.08 7.01112C15.0979 6.921 15.1421 6.83821 15.207 6.77323C15.272 6.70824 15.3548 6.66399 15.4449 6.64605C15.535 6.62812 15.6284 6.63731 15.7133 6.67247C15.7982 6.70763 15.8707 6.76718 15.9218 6.84358C15.9728 6.91998 16 7.0098 16 7.10168C15.9999 7.22476 15.9509 7.34276 15.8639 7.42981C15.7769 7.51686 15.6589 7.56585 15.5359 7.56604ZM15.5359 7.08806L15.522 7.10168C15.5221 7.10529 15.5236 7.10873 15.5262 7.11124C15.5288 7.11376 15.5322 7.11514 15.5359 7.1151V7.08806Z" fill="white"/>
<path d="M3.32223 1.68148C3.44656 1.68148 3.54736 1.58069 3.54736 1.45636C3.54736 1.33202 3.44656 1.23123 3.32223 1.23123C3.1979 1.23123 3.09711 1.33202 3.09711 1.45636C3.09711 1.58069 3.1979 1.68148 3.32223 1.68148Z" fill="white"/>
<path d="M3.32229 1.92088C3.2304 1.92098 3.14054 1.89381 3.06409 1.84283C2.98764 1.79185 2.92803 1.71934 2.8928 1.63447C2.85757 1.5496 2.8483 1.45619 2.86616 1.36605C2.88403 1.27592 2.92823 1.1931 2.99317 1.12809C3.05811 1.06308 3.14087 1.01879 3.23099 1.00082C3.3211 0.982851 3.41453 0.992015 3.49943 1.02715C3.58434 1.06229 3.65692 1.12182 3.70799 1.19821C3.75906 1.2746 3.78632 1.36442 3.78633 1.45631C3.78624 1.57941 3.73734 1.69744 3.65035 1.78453C3.56336 1.87162 3.44538 1.92065 3.32229 1.92088ZM3.32229 1.4429L3.30833 1.45632C3.30841 1.45995 3.30991 1.46341 3.31252 1.46595C3.31514 1.46848 3.31864 1.46987 3.32228 1.46983L3.32229 1.4429Z" fill="white"/>
<path d="M12.2888 14.2298C12.2803 14.2298 12.2718 14.2284 12.2637 14.2256L6.36964 12.1449L0.0383367 8.58599C0.027983 8.58019 0.019154 8.57201 0.0125753 8.56214C0.00599654 8.55226 0.00185628 8.54096 0.000494972 8.52917C-0.000866337 8.51739 0.000589987 8.50544 0.00474457 8.49433C0.00889916 8.48321 0.0156329 8.47324 0.0243925 8.46523L4.7879 4.10027L11.0164 0.675754C11.0266 0.670105 11.0379 0.666917 11.0495 0.666444C11.0612 0.66597 11.0728 0.668224 11.0834 0.673026C11.094 0.67782 11.1033 0.684997 11.1107 0.693998C11.118 0.702999 11.1232 0.71358 11.1258 0.724915L12.5213 6.85969L12.3639 14.1564C12.3636 14.1683 12.3605 14.1799 12.3549 14.1904C12.3493 14.2008 12.3412 14.2098 12.3315 14.2166C12.3189 14.2252 12.304 14.2298 12.2888 14.2298ZM0.20228 8.50588L6.43149 12.0086L12.216 14.0495L12.373 6.87465L11.0014 0.855292L4.87479 4.22142L0.20228 8.50588Z" fill="white"/>
<path d="M10.9564 11.2103L10.9257 11.1998L3.2854 8.54361L3.31003 8.52222L9.44145 3.22089L10.9564 11.2103ZM3.3592 8.52935L10.9074 11.1537L9.41672 3.29196L3.3592 8.52935Z" fill="white"/>
<path d="M6.34586 12.2147L4.73947 4.04016L12.595 6.84885L6.34586 12.2147ZM4.93779 4.27056L6.44355 11.9329L12.3011 6.90336L4.93779 4.27056Z" fill="white"/>
<path d="M3.38779 1.4195L3.25677 1.4931L4.77312 4.19215L4.90414 4.11854L3.38779 1.4195Z" fill="white"/>
<path d="M6.33146 12.0332L6.45809 12.1143L4.67677 14.9098L4.55014 14.8289L6.33146 12.0332Z" fill="white"/>
<path d="M12.4535 6.80119L12.4426 6.95093L15.5304 7.1765L15.5413 7.02677L12.4535 6.80119Z" fill="white"/>
</g>
<defs>
<clipPath id="clip0_24_58">
<rect width="16" height="16" fill="white"/>
</clipPath>
</defs>
</svg>
