<svg width="40" height="40" viewBox="0 0 40 40" fill="none" xmlns="http://www.w3.org/2000/svg">
<path d="M22.567 19.7144C22.567 25.9843 17.5189 31.067 11.2918 31.067C5.06464 31.067 0.0164795 25.9843 0.0164795 19.7144C0.0164795 13.4445 5.06464 8.36182 11.2918 8.36182C17.5189 8.36182 22.567 13.4445 22.567 19.7144Z" fill="#F8F8FF"/>
<path d="M34.9362 19.7145C34.9362 25.6166 32.4124 30.4011 29.2985 30.4011C26.1851 30.4011 23.661 25.6166 23.661 19.7145C23.661 13.8125 26.1851 9.02798 29.2985 9.02798C32.4124 9.02798 34.9362 13.8125 34.9362 19.7145Z" fill="#F8F8FF"/>
<path d="M39.9958 19.7145C39.9958 25.0025 39.1079 29.2893 38.013 29.2893C36.918 29.2893 36.0305 25.0025 36.0305 19.7145C36.0305 14.4266 36.918 10.1398 38.013 10.1398C39.1079 10.1398 39.9958 14.4266 39.9958 19.7145Z" fill="#F8F8FF"/>
</svg>
