<svg width="16" height="16" viewBox="0 0 16 16" fill="none" xmlns="http://www.w3.org/2000/svg">
<path d="M14.9 7.83099L14.313 7.46799C14.313 7.41099 14.303 7.35399 14.296 7.29699L14.796 6.82599C14.8217 6.80279 14.841 6.77331 14.8519 6.74044C14.8628 6.70757 14.865 6.67242 14.8582 6.63845C14.8515 6.60448 14.836 6.57285 14.8134 6.54665C14.7907 6.52045 14.7616 6.50058 14.729 6.48899L14.084 6.24799C14.068 6.19199 14.051 6.13699 14.034 6.08099L14.434 5.52199C14.4552 5.49366 14.4685 5.46022 14.4725 5.42509C14.4765 5.38996 14.4712 5.35438 14.457 5.32199C14.4444 5.29075 14.4242 5.2632 14.3982 5.24187C14.3721 5.22055 14.3411 5.20614 14.308 5.19999L13.628 5.08899C13.602 5.03699 13.574 4.98899 13.546 4.93599L13.832 4.30799C13.847 4.27669 13.8535 4.24204 13.8511 4.20744C13.8486 4.17284 13.8372 4.13948 13.8179 4.11063C13.7986 4.08178 13.7722 4.05844 13.7412 4.0429C13.7102 4.02736 13.6756 4.02015 13.641 4.02199L12.951 4.04599C12.915 4.00199 12.879 3.95699 12.842 3.91299L13 3.24599C13.0091 3.21231 13.0092 3.17684 13.0003 3.1431C12.9915 3.10936 12.9739 3.07853 12.9495 3.05366C12.925 3.02879 12.8945 3.01075 12.8609 3.00134C12.8273 2.99192 12.7918 2.99146 12.758 2.99999L12.086 3.15899C12.042 3.12399 12 3.08799 11.953 3.05199L11.977 2.36199C11.9785 2.32763 11.971 2.29347 11.9555 2.26281C11.9399 2.23216 11.9166 2.20604 11.888 2.18699C11.859 2.16694 11.8253 2.1549 11.7902 2.15209C11.755 2.14928 11.7198 2.1558 11.688 2.17099L11.06 2.45699L10.907 2.37499L10.8 1.69499C10.7945 1.66088 10.7803 1.62877 10.7588 1.60178C10.7372 1.57479 10.7091 1.55385 10.677 1.54099C10.6446 1.52679 10.609 1.52145 10.5739 1.52549C10.5388 1.52953 10.5053 1.54281 10.477 1.56399L9.918 1.96399L9.752 1.91399L9.517 1.26999C9.50575 1.23712 9.48614 1.20776 9.46009 1.18478C9.43405 1.1618 9.40246 1.146 9.36845 1.13893C9.33444 1.13187 9.29918 1.13378 9.26614 1.14449C9.23309 1.15519 9.20341 1.17432 9.18 1.19999L8.709 1.70499L8.538 1.69099L8.174 1.09999C8.15629 1.07014 8.13112 1.04542 8.10097 1.02825C8.07081 1.01107 8.0367 1.00204 8.002 1.00204C7.9673 1.00204 7.93319 1.01107 7.90304 1.02825C7.87288 1.04542 7.84771 1.07014 7.83 1.09999L7.467 1.68699L7.3 1.70799L6.825 1.19999C6.80181 1.17426 6.77233 1.155 6.73946 1.1441C6.70658 1.13319 6.67144 1.131 6.63747 1.13776C6.6035 1.14451 6.57186 1.15997 6.54566 1.18263C6.51946 1.20528 6.49959 1.23435 6.488 1.26699L6.246 1.91199L6.08 1.96199L5.521 1.56199C5.49326 1.54115 5.46058 1.52789 5.42617 1.52351C5.39176 1.51913 5.35679 1.52377 5.32472 1.53699C5.29264 1.5502 5.26456 1.57153 5.24322 1.59888C5.22188 1.62623 5.20802 1.65866 5.203 1.69299L5.092 2.37299C5.042 2.39999 4.99 2.42899 4.94 2.45699L4.312 2.17099C4.28021 2.1558 4.24497 2.14928 4.20985 2.15209C4.17473 2.1549 4.14097 2.16694 4.112 2.18699C4.08337 2.20604 4.06014 2.23216 4.04455 2.26281C4.02896 2.29347 4.02154 2.32763 4.023 2.36199L4.047 3.05199C4.003 3.08799 3.958 3.12399 3.914 3.16099L3.245 2.99999C3.21098 2.9908 3.17513 2.99077 3.1411 2.99989C3.10706 3.00902 3.07603 3.02697 3.05117 3.05194C3.0263 3.07691 3.00847 3.10801 2.99948 3.14208C2.9905 3.17616 2.99068 3.212 3 3.24599L3.161 3.91899C3.124 3.96299 3.088 4.00599 3.052 4.05199L2.362 4.02799C2.32736 4.02615 2.29284 4.03336 2.26183 4.0489C2.23081 4.06444 2.20438 4.08778 2.18511 4.11663C2.16585 4.14548 2.15442 4.17884 2.15194 4.21344C2.14947 4.24804 2.15604 4.28269 2.171 4.31399L2.457 4.93999C2.429 4.98999 2.402 5.03999 2.375 5.09299L1.695 5.19999C1.66068 5.205 1.62824 5.21886 1.60089 5.2402C1.57354 5.26154 1.55221 5.28963 1.539 5.3217C1.52579 5.35378 1.52114 5.38874 1.52553 5.42315C1.52991 5.45757 1.54317 5.49025 1.564 5.51799L1.964 6.07699C1.947 6.13199 1.93 6.18799 1.914 6.24399L1.27 6.48899C1.23736 6.50058 1.20829 6.52045 1.18564 6.54665C1.16299 6.57285 1.14753 6.60448 1.14077 6.63845C1.13402 6.67242 1.1362 6.70757 1.14711 6.74044C1.15802 6.77331 1.17728 6.80279 1.203 6.82599L1.708 7.29999C1.7 7.35399 1.7 7.41099 1.691 7.46799L1.1 7.83099C1.07016 7.84869 1.04543 7.87386 1.02826 7.90402C1.01109 7.93418 1.00206 7.96828 1.00206 8.00299C1.00206 8.03769 1.01109 8.07179 1.02826 8.10195C1.04543 8.13211 1.07016 8.15728 1.1 8.17499L1.691 8.53799C1.7 8.59999 1.7 8.65299 1.708 8.70899L1.2 9.17999C1.17428 9.20318 1.15502 9.23266 1.14411 9.26553C1.1332 9.2984 1.13102 9.33355 1.13777 9.36752C1.14453 9.40149 1.15999 9.43312 1.18264 9.45932C1.20529 9.48553 1.23436 9.50539 1.267 9.51699L1.915 9.75899C1.931 9.81499 1.948 9.87099 1.965 9.92599L1.565 10.485C1.54472 10.5128 1.53195 10.5453 1.52792 10.5795C1.52389 10.6136 1.52874 10.6482 1.542 10.68C1.555 10.7119 1.57601 10.7398 1.60299 10.7612C1.62997 10.7826 1.662 10.7966 1.696 10.802L2.376 10.913C2.402 10.965 2.43 11.013 2.458 11.066L2.172 11.693C2.15704 11.7243 2.15047 11.7589 2.15294 11.7935C2.15542 11.8281 2.16685 11.8615 2.18611 11.8903C2.20538 11.9192 2.23181 11.9425 2.26283 11.9581C2.29384 11.9736 2.32836 11.9808 2.363 11.979L3.053 11.955C3.089 12 3.125 12.044 3.162 12.088L3 12.759C2.99177 12.7926 2.99241 12.8279 3.00188 12.8612C3.01135 12.8945 3.02932 12.9248 3.05402 12.9491C3.07872 12.9734 3.1093 12.9909 3.14278 12.9998C3.17626 13.0087 3.21149 13.0088 3.245 13L3.918 12.842L4.051 12.951L4.027 13.642C4.02535 13.6765 4.03269 13.7109 4.04831 13.7418C4.06393 13.7727 4.08728 13.799 4.1161 13.8181C4.14492 13.8373 4.17821 13.8486 4.21272 13.851C4.24723 13.8535 4.28178 13.8469 4.313 13.832L4.941 13.546C4.991 13.574 5.041 13.601 5.094 13.628L5.2 14.311C5.20537 14.345 5.21942 14.377 5.24079 14.404C5.26216 14.431 5.29013 14.452 5.322 14.465C5.35442 14.4788 5.38985 14.4841 5.42489 14.4802C5.45992 14.4764 5.49337 14.4635 5.522 14.443L6.081 14.043L6.248 14.093L6.49 14.738C6.50159 14.7706 6.52146 14.7997 6.54766 14.8223C6.57386 14.845 6.6055 14.8605 6.63947 14.8672C6.67344 14.874 6.70858 14.8718 6.74146 14.8609C6.77433 14.85 6.80381 14.8307 6.827 14.805L7.3 14.3C7.357 14.307 7.414 14.312 7.472 14.317L7.832 14.9C7.84977 14.9296 7.87491 14.9541 7.90496 14.9711C7.93501 14.9881 7.96896 14.9971 8.0035 14.9971C8.03804 14.9971 8.07199 14.9881 8.10204 14.9711C8.1321 14.9541 8.15723 14.9296 8.175 14.9L8.538 14.313L8.709 14.3L9.18 14.8C9.2032 14.8257 9.23267 14.845 9.26555 14.8559C9.29842 14.8668 9.33356 14.869 9.36753 14.8622C9.4015 14.8555 9.43314 14.84 9.45934 14.8173C9.48554 14.7947 9.50541 14.7656 9.517 14.733L9.759 14.088L9.926 14.038L10.485 14.438C10.5134 14.459 10.5469 14.4721 10.582 14.476C10.6172 14.4798 10.6527 14.4743 10.685 14.46C10.7169 14.447 10.7448 14.426 10.7662 14.399C10.7876 14.372 10.8016 14.34 10.807 14.306L10.918 13.626L11.071 13.544L11.699 13.83C11.7302 13.8447 11.7646 13.851 11.799 13.8485C11.8333 13.846 11.8665 13.8346 11.8951 13.8155C11.9238 13.7963 11.9471 13.7701 11.9626 13.7394C11.9782 13.7087 11.9856 13.6744 11.984 13.64L11.96 12.949L12.093 12.84L12.76 13C12.7935 13.008 12.8285 13.0073 12.8616 12.9978C12.8947 12.9883 12.9248 12.9705 12.949 12.946C12.9727 12.9217 12.9897 12.8918 12.9987 12.8591C13.0076 12.8264 13.008 12.7919 13 12.759L12.842 12.086C12.879 12.042 12.915 11.999 12.951 11.953L13.641 11.977C13.6754 11.9784 13.7095 11.971 13.7402 11.9554C13.7708 11.9398 13.7969 11.9166 13.816 11.888C13.8359 11.8589 13.8477 11.8251 13.8504 11.79C13.853 11.7549 13.8463 11.7197 13.831 11.688L13.545 11.061C13.572 11.011 13.6 10.961 13.627 10.908L14.307 10.797C14.3412 10.7919 14.3734 10.778 14.4006 10.7567C14.4278 10.7355 14.4491 10.7075 14.4622 10.6756C14.4754 10.6437 14.4801 10.6089 14.4759 10.5746C14.4716 10.5403 14.4586 10.5077 14.438 10.48L14.038 9.92099C14.055 9.86599 14.072 9.80999 14.088 9.75399L14.733 9.51299C14.7653 9.50103 14.7939 9.48094 14.8162 9.45466C14.8384 9.42838 14.8535 9.39681 14.86 9.36299C14.8662 9.3299 14.864 9.29578 14.8535 9.26379C14.843 9.2318 14.8246 9.20297 14.8 9.17999L14.3 8.70899C14.306 8.65199 14.311 8.59499 14.317 8.53799L14.9 8.17499C14.9298 8.15728 14.9546 8.13211 14.9717 8.10195C14.9889 8.07179 14.9979 8.03769 14.9979 8.00299C14.9979 7.96828 14.9889 7.93418 14.9717 7.90402C14.9546 7.87386 14.9298 7.84869 14.9 7.83099ZM10.968 12.7C10.8875 12.6829 10.8138 12.6423 10.7563 12.5833C10.6989 12.5243 10.6603 12.4496 10.6453 12.3686C10.6304 12.2876 10.6398 12.204 10.6724 12.1284C10.705 12.0528 10.7593 11.9885 10.8284 11.9438C10.8975 11.8991 10.9784 11.8759 11.0607 11.8771C11.1431 11.8784 11.2232 11.904 11.2909 11.9508C11.3587 11.9976 11.411 12.0635 11.4413 12.1401C11.4715 12.2167 11.4784 12.3005 11.461 12.381C11.4375 12.4884 11.3725 12.5822 11.2802 12.642C11.1878 12.7017 11.0756 12.7226 10.968 12.7ZM10.768 11.351C10.7194 11.3406 10.6692 11.3398 10.6204 11.3488C10.5715 11.3578 10.5249 11.3763 10.4832 11.4034C10.4415 11.4304 10.4055 11.4654 10.3773 11.5063C10.3492 11.5473 10.3293 11.5934 10.319 11.642L10.11 12.615C9.43977 12.9185 8.7121 13.0742 7.97637 13.0716C7.24064 13.069 6.51408 12.9082 5.846 12.6L5.637 11.627C5.61589 11.5289 5.55678 11.4433 5.47262 11.3887C5.38846 11.3342 5.28612 11.3152 5.188 11.336L4.329 11.52C4.16955 11.3557 4.02122 11.181 3.885 10.997H8.065C8.112 10.997 8.144 10.988 8.144 10.945V9.46299C8.144 9.41999 8.112 9.41099 8.065 9.41099H6.842V8.47399H8.164C8.36038 8.47579 8.54977 8.54708 8.6986 8.67521C8.84742 8.80335 8.94605 8.98005 8.977 9.17399C9.029 9.37999 9.145 10.051 9.224 10.266C9.27596 10.4391 9.37103 10.5961 9.50029 10.7224C9.62955 10.8487 9.78876 10.9401 9.963 10.988H12.046C12.0712 10.9878 12.0963 10.9855 12.121 10.981C11.9768 11.1774 11.8187 11.3632 11.648 11.537L10.769 11.348L10.768 11.351ZM4.988 12.68C4.90756 12.6973 4.82378 12.6904 4.74725 12.6602C4.67073 12.6299 4.6049 12.5776 4.5581 12.5099C4.5113 12.4422 4.48563 12.3622 4.48433 12.2799C4.48303 12.1976 4.50616 12.1168 4.55081 12.0477C4.59545 11.9785 4.65959 11.9242 4.73512 11.8915C4.81065 11.8589 4.89417 11.8493 4.97512 11.8641C5.05607 11.8789 5.13081 11.9174 5.18989 11.9747C5.24896 12.032 5.28972 12.1055 5.307 12.186C5.3189 12.2395 5.32007 12.2949 5.31044 12.3489C5.30082 12.4028 5.28059 12.4544 5.25093 12.5005C5.22127 12.5466 5.18276 12.5864 5.13763 12.6176C5.0925 12.6487 5.04164 12.6706 4.988 12.682V12.68ZM3.4 6.25299C3.43309 6.32806 3.44318 6.41125 3.42901 6.49205C3.41483 6.57286 3.37702 6.64765 3.32036 6.70698C3.2637 6.76631 3.19073 6.80751 3.11066 6.82538C3.03059 6.84326 2.94703 6.837 2.87051 6.8074C2.794 6.7778 2.72798 6.72619 2.68079 6.65908C2.63359 6.59197 2.60735 6.51239 2.60537 6.43037C2.60339 6.34836 2.62576 6.2676 2.66966 6.19829C2.71355 6.12899 2.77701 6.07424 2.852 6.04099C2.9528 5.99657 3.0671 5.99395 3.16983 6.03369C3.27256 6.07343 3.35534 6.1523 3.4 6.25299ZM2.916 7.40799L3.811 7.00799C3.90168 6.96652 3.97236 6.891 4.00774 6.79779C4.04312 6.70457 4.04034 6.60117 4 6.50999L3.819 6.09299H4.543V9.35999H3.081C2.94973 8.90485 2.88242 8.43367 2.881 7.95999C2.88111 7.77627 2.89079 7.59269 2.91 7.40999L2.916 7.40799ZM6.843 7.09099V6.12899H8.569C8.71613 6.12882 8.85888 6.17903 8.9735 6.27127C9.08812 6.36352 9.1677 6.49223 9.199 6.63599C9.15501 6.79387 9.05231 6.92895 8.91193 7.01354C8.77156 7.09814 8.60415 7.12585 8.444 7.09099H6.843ZM13.115 7.95699C13.115 8.08499 13.1103 8.21132 13.101 8.33599H12.575C12.5641 8.33547 12.5532 8.33745 12.5431 8.34177C12.5331 8.3461 12.5242 8.35266 12.517 8.36094C12.5099 8.36923 12.5048 8.37904 12.502 8.38962C12.4992 8.40019 12.4989 8.41126 12.501 8.42199V8.66399C12.5158 8.75188 12.5115 8.84194 12.4884 8.92802C12.4652 9.01409 12.4237 9.09414 12.3667 9.1627C12.3097 9.23125 12.2386 9.2867 12.1583 9.32523C12.0779 9.36377 11.9901 9.38449 11.901 9.38599C11.7848 9.40745 11.6649 9.39256 11.5575 9.34335C11.4501 9.29413 11.3606 9.21299 11.301 9.11099C11.2819 8.82848 11.1964 8.55446 11.0515 8.3112C10.9066 8.06794 10.7063 7.8623 10.467 7.71099C10.7486 7.5748 10.992 7.37069 11.1751 7.11704C11.3582 6.86339 11.4754 6.56818 11.516 6.25799C11.5057 5.98426 11.4271 5.71747 11.2874 5.48187C11.1476 5.24626 10.9512 5.04933 10.716 4.90899C10.3865 4.6961 10.0076 4.57176 9.616 4.54799H4.19C4.93961 3.70886 5.94535 3.14077 7.051 2.93199L7.691 3.59999C7.76044 3.67238 7.85574 3.71429 7.95602 3.71654C8.0563 3.71879 8.15339 3.68119 8.226 3.61199L8.942 2.92999C9.67132 3.06709 10.3621 3.36116 10.9665 3.79181C11.5708 4.22246 12.0743 4.77939 12.442 5.42399L11.953 6.52999C11.9126 6.62192 11.9102 6.72611 11.9463 6.81981C11.9825 6.9135 12.0543 6.98906 12.146 7.02999L13.089 7.44999C13.106 7.61699 13.114 7.78699 13.114 7.95799L13.115 7.95699ZM7.692 2.35699C7.75147 2.30053 7.82634 2.26295 7.90714 2.249C7.98795 2.23505 8.07108 2.24536 8.14604 2.27862C8.22099 2.31187 8.28442 2.36659 8.3283 2.43586C8.37219 2.50513 8.39457 2.58585 8.39261 2.66783C8.39066 2.74981 8.36447 2.82938 8.31734 2.89648C8.2702 2.96359 8.20425 3.01522 8.12779 3.04488C8.05134 3.07453 7.96781 3.08086 7.88776 3.06309C7.80771 3.04531 7.73472 3.00421 7.678 2.94499C7.60276 2.86558 7.56192 2.75968 7.56435 2.65031C7.56679 2.54095 7.6123 2.43697 7.691 2.36099L7.692 2.35699ZM12.554 6.26899C12.5875 6.19413 12.6424 6.13087 12.7118 6.08719C12.7812 6.04352 12.862 6.02138 12.944 6.02358C13.0259 6.02579 13.1054 6.05222 13.1724 6.09956C13.2393 6.1469 13.2908 6.21301 13.3202 6.28955C13.3496 6.3661 13.3557 6.44964 13.3377 6.52964C13.3197 6.60964 13.2783 6.68251 13.2189 6.73904C13.1595 6.79558 13.0847 6.83325 13.0039 6.8473C12.9231 6.86135 12.84 6.85115 12.765 6.81799C12.6652 6.77312 12.5872 6.69078 12.5477 6.58878C12.5082 6.48678 12.5105 6.37333 12.554 6.27299V6.26899Z" fill="white"/>
</svg>
