<svg width="33" height="25" viewBox="0 0 33 25" fill="none" xmlns="http://www.w3.org/2000/svg">
<path d="M5.36295 19.0845C5.56489 18.8895 5.83865 18.7799 6.12409 18.7799H32.4606C32.9403 18.7799 33.1805 19.3408 32.8411 19.6686L27.6371 24.6954C27.4352 24.8904 27.1614 25 26.8759 25H0.539466C0.0597362 25 -0.180445 24.4392 0.158894 24.1113L5.36295 19.0845Z" fill="white" fill-opacity="0.75"/>
<path d="M5.36295 0.304631C5.56486 0.109564 5.83864 -9.74149e-06 6.12409 6.49569e-10H32.4606C32.9403 6.49569e-10 33.1805 0.560844 32.8411 0.888707L27.6371 5.91552C27.4351 6.11054 27.1614 6.22009 26.8759 6.22009H0.539466C0.0597362 6.22009 -0.180445 5.65925 0.158894 5.33144L5.36295 0.304631Z" fill="white" fill-opacity="0.75"/>
<path d="M27.6371 9.63474C27.4351 9.43971 27.1614 9.33017 26.8759 9.33016H0.539466C0.0597362 9.33016 -0.180445 9.89101 0.158894 10.2188L5.36295 15.2456C5.56486 15.4407 5.83864 15.5503 6.12409 15.5503H32.4606C32.9403 15.5503 33.1805 14.9894 32.8411 14.6615L27.6371 9.63474Z" fill="white" fill-opacity="0.75"/>
</svg>
