<svg width="16" height="16" viewBox="0 0 16 16" fill="none" xmlns="http://www.w3.org/2000/svg">
<path fill-rule="evenodd" clip-rule="evenodd" d="M1.47198 1.47198V14.528H14.528V1.47198H1.47198ZM11.3926 7.81343V7.81361C11.5178 7.814 11.6601 7.82045 11.7671 7.83205C12.2029 7.8792 12.5423 8.06722 12.8311 8.42136C12.9748 8.59777 13.024 8.67497 13.0136 8.70799C13.0068 8.72929 12.9081 8.79995 12.5945 9.00817C12.2864 9.21272 12.1871 9.27399 12.1641 9.27399C12.1407 9.27399 12.092 9.22388 12.0218 9.12767C11.8866 8.94242 11.7486 8.85787 11.5352 8.82967C11.3058 8.79929 11.1 8.87161 10.9992 9.01811C10.913 9.14327 10.9 9.3447 10.9685 9.49104C11.0478 9.66056 11.1914 9.75428 11.7418 9.99562C12.3766 10.2739 12.6982 10.4644 12.9325 10.7009C13.1848 10.9555 13.3126 11.2494 13.3519 11.6652C13.371 11.8679 13.3476 12.1081 13.2896 12.3034C13.1474 12.7822 12.7636 13.1327 12.201 13.2977C12.0455 13.3433 11.9007 13.3706 11.7576 13.381C11.5391 13.3971 11.2263 13.3883 11.038 13.3609C10.5618 13.2915 10.0241 13.0143 9.756 12.7001C9.62439 12.5458 9.45638 12.2919 9.45638 12.2473C9.45638 12.2257 9.46705 12.2135 9.50937 12.1866C9.63486 12.1068 10.354 11.6957 10.3679 11.6957C10.3764 11.6957 10.4139 11.74 10.4514 11.7941C10.5362 11.9166 10.7448 12.1271 10.8509 12.1974C10.9375 12.2548 11.0483 12.3008 11.1798 12.3341C11.2551 12.3529 11.295 12.3562 11.4593 12.3562C11.6273 12.3561 11.6617 12.3533 11.7368 12.3331C11.9356 12.2797 12.0907 12.169 12.1564 12.0338C12.1852 11.9754 12.1858 11.9681 12.1858 11.8264V11.6796L12.1505 11.6095C12.0649 11.4397 11.8806 11.3232 11.2978 11.0708C11.0301 10.9548 10.7023 10.7913 10.5743 10.71C10.2822 10.5243 10.0797 10.3121 9.94685 10.0523C9.81469 9.79399 9.79498 9.69783 9.79466 9.30939C9.79433 9.00531 9.79383 9.00904 9.85679 8.81495C9.91391 8.63883 10.0308 8.44209 10.1599 8.30491C10.4175 8.03104 10.7939 7.85505 11.1969 7.82004C11.2484 7.81516 11.3175 7.81326 11.3926 7.81348L11.3926 7.81343ZM7.92511 7.87349H7.92523C8.70133 7.87388 9.14622 7.87657 9.15336 7.88105C9.16681 7.88938 9.16848 7.95692 9.16848 8.388V8.88531L8.39405 8.88812L7.61962 8.89093V11.0897C7.61962 12.2991 7.61717 13.2958 7.61381 13.3046C7.60833 13.3194 7.54877 13.3205 7.04488 13.3205H6.48206L6.47625 13.2978C6.47249 13.2853 6.46975 12.2886 6.46969 11.0829L6.4695 8.89081L5.69507 8.88806L4.92064 8.88525V8.39382C4.92064 8.00406 4.92333 7.89968 4.9337 7.88931C4.94435 7.87832 5.33959 7.87549 7.04256 7.87381C7.37091 7.87348 7.66639 7.87333 7.92511 7.87349Z" fill="white"/>
</svg>
